# xmcd
#
# Track frame offsets: 
#        150
#        22112
#        43805
#        58635
#        72814
#        97195
#        112961
#        127934
#        143841
#        160887
#        178734
#        194184
#
# Disc length: 2773 seconds
#
# Revision: 0
# Processed by: cddbd v1.5.2PL0 Copyright (c) Steve Scherf et al.
# Submitted via: ExactAudioCopy v1.0b4
#
DISCID=b20ad30c
DTITLE=Donny Nichilo - Long Way From Chicago
DYEAR=2010
DGENRE=Blues
TTITLE0=Confessin' The Blues
TTITLE1=Lately
TTITLE2=Seventh Son
TTITLE3=I Love Being Here With You
TTITLE4=Baby Please
TTITLE5=Never No More
TTITLE6=Gee Baby, Ain't I Good To You
TTITLE7=Flip Flop Fly
TTITLE8=I'm Walkin'
TTITLE9=Mother In Law Blues
TTITLE10=The Preacher
TTITLE11=Worried Life Blues
EXTD=
EXTT0=
EXTT1=
EXTT2=
EXTT3=
EXTT4=
EXTT5=
EXTT6=
EXTT7=
EXTT8=
EXTT9=
EXTT10=
EXTT11=
PLAYORDER=
